<svg xmlns="http://www.w3.org/2000/svg" viewBox="0 0 61 47" width="61" height="47">
	<style>
		tspan { white-space:pre }
		.shp0 { fill: #6f6f6f } 
		.shp1 { fill: #e7bd7b } 
	</style>
	<path id="black" class="shp0" d="M61,42.21v-38.02c0,-2.21 -1.79,-4 -4,-4h-55c-0.55,0 -1,0.45 -1,1c0,0.55 0.45,1 1,1h55c1.1,0 2,0.9 2,2v38.02c0,1.1 -0.9,2 -2,2h-52c-1.1,0 -2,-0.9 -2,-2v-35.01c0,-0.55 -0.45,-1 -1,-1c-0.55,0 -1,0.45 -1,1v35.01c0,2.21 1.79,4 4,4h52c2.21,0 4,-1.79 4,-4z" />
	<path id="blue" class="shp1" d="M53.28,6.47l-23,23.01c-0.39,0.39 -0.39,1.03 0,1.42c0.39,0.39 1.03,0.39 1.42,0l23,-23.01c0.39,-0.39 0.39,-1.03 0,-1.42c-0.39,-0.39 -1.03,-0.39 -1.42,0zM7.31,6.47c-0.39,0.39 -0.39,1.03 0,1.42l23,23.01c0.39,0.39 1.03,0.39 1.42,0c0.39,-0.39 0.39,-1.03 0,-1.42l-23,-23.01c-0.39,-0.39 -1.03,-0.39 -1.42,0z" />
</svg>