<svg xmlns="http://www.w3.org/2000/svg" viewBox="0 0 49 41" width="49" height="41">
	<style>
		tspan { white-space:pre }
		.shp0 { fill: #6f6f6f } 
	</style>
	<path id="heart" class="shp0" d="M34.97 3.17C40.94 3.17 45.78 7.6 45.78 13.07C45.78 15.87 44.5 18.4 42.45 20.2L25 36.86L7.23 19.92C5.37 18.14 4.22 15.72 4.22 13.07C4.22 7.6 9.06 3.17 15.03 3.17C19.52 3.17 23.37 5.93 25 9.5C26.63 5.93 30.18 3.15 34.95 3.15M35.6 0.01C31.37 0.01 27.5 1.63 25 4.71C22.5 1.63 18.62 0.01 14.4 0.01C7.01 0.01 1 5.73 1 12.77C1 16.07 2.33 19.21 4.74 21.6L23.64 39.68L25 40.98L26.36 39.68L44.9 21.94C47.53 19.54 49 16.27 49 12.77C49 5.73 42.99 0.01 35.6 0.01L35.6 0.01Z" />
</svg>