<svg xmlns="http://www.w3.org/2000/svg" viewBox="0 0 33 41" width="33" height="41">
	<style>
		tspan { white-space:pre }
		.shp0 { fill: #6f6f6f } 
	</style>
	<path id="document 2" class="shp0" d="M32.71 41L1 41L1 0.99L23.46 0.99L32.71 10.33L32.71 41ZM23.46 4.37L23.46 10.33L29.37 10.33L23.46 4.37ZM30.07 13L20.82 13L20.82 3.66L3.64 3.66L3.64 38.33L30.07 38.33L30.07 13ZM26.11 21L7.61 21L7.61 18.33L26.11 18.33L26.11 21ZM26.11 26.33L7.61 26.33L7.61 23.67L26.11 23.67L26.11 26.33ZM26.11 31.67L7.61 31.67L7.61 29L26.11 29L26.11 31.67Z" />
</svg>