<svg xmlns="http://www.w3.org/2000/svg" viewBox="0 0 35 40" width="35" height="40">
	<style>
		tspan { white-space:pre }
		.shp0 { fill: #6f6f6f } 
	</style>
	<path id="wedding cake" class="shp0" d="M0 40L0 21.33L5.23 21.33L5.23 10.66L15.71 10.66L11.49 6.32C10.83 5.62 10.47 4.7 10.47 3.73C10.47 2.99 10.69 2.3 11.06 1.71L11.03 1.71L11.06 1.71C11.71 0.68 12.83 0 14.12 0C15.27 0 16.32 0.48 17 1.38C17.68 0.48 18.73 0 19.88 0C21.17 0 22.29 0.68 22.94 1.71L22.97 1.71L22.94 1.71C23.31 2.3 23.53 2.99 23.53 3.73C23.53 4.76 23.13 5.72 22.42 6.42L18.29 10.66L28.77 10.66L28.77 21.33L34 21.33L34 40L0 40ZM14.54 2.68C14.44 2.68 14.35 2.69 14.25 2.7L14.7 2.7C14.65 2.69 14.59 2.68 14.54 2.68ZM19.37 2.68L19.37 2.68C19.31 2.68 19.25 2.69 19.19 2.7L19.68 2.7C19.58 2.69 19.48 2.68 19.37 2.68ZM20.92 4.38C20.92 3.73 20.7 2.79 19.7 2.7L19.19 2.7C18.52 2.8 17.99 3.18 17 4.04C16.01 3.26 15.31 2.79 14.71 2.7L14.24 2.7C13.23 2.79 13.04 3.97 13.08 4.41C13.15 5.09 13.55 5.27 13.93 5.67L17 8.75L19.94 5.84C20.35 5.43 20.92 5.01 20.92 4.38ZM26.15 13.33L7.85 13.33L7.85 21.33L26.15 21.33L26.15 13.33ZM31.38 24L2.62 24L2.62 30.6C2.81 30.64 3.03 30.66 3.29 30.66C5.09 30.66 6.55 29.17 6.55 27.33C6.55 27.02 6.51 26.67 6.55 26.66C6.82 26.66 7.1 26.66 7.52 26.66C8.04 26.66 8.58 26.66 9.16 26.66C9.11 26.67 9.16 27.07 9.16 27.33C9.16 29.17 10.62 30.66 12.42 30.66C14.22 30.66 15.68 29.17 15.68 27.33C15.68 27.02 15.64 26.67 15.68 26.66C15.94 26.66 16.22 26.66 16.64 26.66C17.16 26.66 17.71 26.66 18.28 26.66C18.24 26.67 18.28 27.07 18.28 27.33C18.28 29.17 19.74 30.66 21.54 30.66C23.34 30.66 24.8 29.17 24.8 27.33C24.8 27.02 24.76 26.67 24.8 26.66C25.07 26.66 25.35 26.66 25.77 26.66C26.29 26.66 26.83 26.66 27.41 26.66C27.37 26.67 27.41 27.07 27.41 27.33C27.41 29.17 28.87 30.66 30.67 30.66C30.95 30.66 31.18 30.6 31.38 30.5L31.38 24ZM31.38 33.24C31.17 33.29 30.94 33.33 30.67 33.33C28.82 33.33 27.18 32.46 26.1 31.1C25.03 32.46 23.39 33.33 21.54 33.33C19.7 33.33 18.05 32.46 16.98 31.1C15.9 32.46 14.26 33.33 12.42 33.33C10.57 33.33 8.93 32.46 7.85 31.1C6.78 32.46 5.14 33.33 3.29 33.33C3.02 33.33 2.83 33.29 2.62 33.27L2.62 37.33L31.38 37.33L31.38 33.24ZM27.41 26.66C27.41 26.66 27.41 26.66 27.41 26.66C27.41 26.66 27.41 26.66 27.41 26.66C27.41 26.66 27.41 26.66 27.41 26.66Z" />
</svg>