<svg xmlns="http://www.w3.org/2000/svg" viewBox="0 0 39 61" width="39" height="61">
	<style>
		tspan { white-space:pre }
		.shp0 { fill: #6f6f6f } 
		.shp1 { fill: #e7bd7b } 
	</style>
	<path id="black" class="shp0" d="M5,0.19h30c2.21,0 4,1.79 4,4v52.02c0,2.21 -1.79,4 -4,4h-30c-2.21,0 -4,-1.79 -4,-4v-52.02c0,-2.21 1.79,-4 4,-4zM3,4.19l0,44.02h29c0.55,0 1,0.45 1,1c0,0.55 -0.45,1 -1,1l-29,0v6c0,1.1 0.9,2 2,2h30c1.1,0 2,-0.9 2,-2l0,-44.02h-29c-0.55,0 -1,-0.45 -1,-1c0,-0.55 0.45,-1 1,-1l29,0v-6c0,-1.1 -0.9,-2 -2,-2h-30c-1.1,0 -2,0.9 -2,2z" />
	<path id="blue" class="shp1" d="M18,54.21c0,1.11 0.9,2 2,2c1.1,0 2,-0.9 2,-2c0,-1.1 -0.9,-2 -2,-2c-1.1,0 -2,0.9 -2,2zM16,6.19c0,0.55 0.45,1 1,1h6c0.55,0 1,-0.45 1,-1c0,-0.55 -0.45,-1 -1,-1h-6c-0.55,0 -1,0.45 -1,1zM7.28,21.91c0.37,0.38 0.98,0.38 1.36,0l4.07,-4.07c0.37,-0.37 0.37,-0.98 0,-1.36c-0.37,-0.37 -0.98,-0.37 -1.36,0l-4.07,4.07c-0.37,0.37 -0.37,0.98 0,1.36zM7.28,27.91c0.37,0.37 0.98,0.37 1.36,0l10.07,-10.08c0.37,-0.37 0.37,-0.98 0,-1.36c-0.37,-0.37 -0.98,-0.37 -1.36,0l-10.07,10.08c-0.37,0.37 -0.37,0.98 0,1.36z" />
</svg>