<svg xmlns="http://www.w3.org/2000/svg" viewBox="0 0 62 61" width="62" height="61">
	<style>
		tspan { white-space:pre }
		.shp0 { fill: #e7bd7b } 
		.shp1 { fill: #6f6f6f } 
	</style>
	<path id="blue" class="shp0" d="M31,6.19c2.21,0 4,1.79 4,4c0,2.21 -1.79,4 -4,4c-2.21,0 -4,-1.79 -4,-4c0,-2.21 1.79,-4 4,-4zM29,10.19c0,1.1 0.9,2 2,2c1.1,0 2,-0.9 2,-2c0,-1.11 -0.9,-2 -2,-2c-1.1,0 -2,0.9 -2,2zM28.87,53.73c-0.28,0.46 -0.89,0.62 -1.37,0.36c-0.48,-0.27 -0.64,-0.86 -0.37,-1.33l6,-10.08c0.21,-0.35 0.61,-0.53 1,-0.48h10.86c0.55,0 1,0.45 1,1c0,0.55 -0.45,1 -1,1l-10.46,0z" />
	<path id="black" class="shp1" d="M53,38.2c0,12.16 -9.85,22.01 -22,22.01c-10.07,0 -18.55,-6.76 -21.17,-16l-7.58,1.96c-0.53,0.14 -1.08,-0.17 -1.22,-0.71c-0.14,-0.53 0.17,-1.08 0.71,-1.23l7.65,-1.98c-0.25,-1.32 -0.37,-2.68 -0.37,-4.06c0,-8.34 4.64,-15.59 11.47,-19.33l0.92,1.78c-6.19,3.4 -10.39,9.98 -10.39,17.55c0,1.22 0.11,2.41 0.32,3.56l38.63,-10c-1.62,-4.77 -4.99,-8.72 -9.34,-11.11l0.92,-1.78c4.85,2.65 8.59,7.07 10.36,12.39l7.87,-2.04c0.53,-0.14 1.08,0.17 1.22,0.71c0.14,0.53 -0.17,1.08 -0.71,1.23l-7.84,2.03c0.37,1.61 0.57,3.29 0.57,5.01zM31,58.21c11.05,0 20,-8.96 20,-20.01c0,-1.55 -0.18,-3.06 -0.51,-4.51l-38.72,10.02c2.39,8.37 10.1,14.5 19.23,14.5zM39.64,15.22l-8.64,16.99l-8.64,-16.99c-0.86,-1.48 -1.36,-3.19 -1.36,-5.02c0,-5.53 4.48,-10 10,-10c5.52,0 10,4.48 10,10c0,1.83 -0.5,3.55 -1.36,5.02zM39,10.19c0,-4.42 -3.58,-8 -8,-8c-4.42,0 -8,3.58 -8,8c0,1.32 0.32,2.56 0.89,3.66h-0.01l7.12,14.35l7.12,-14.35h-0.01c0.57,-1.1 0.89,-2.34 0.89,-3.66z" />
</svg>