<svg xmlns="http://www.w3.org/2000/svg" viewBox="0 0 41 41" width="41" height="41">
	<style>
		tspan { white-space:pre }
		.shp0 { fill: #6f6f6f } 
	</style>
	<path id="shopping bag" class="shp0" d="M0.94 41L3.61 1L38.33 1L41 41L0.94 41ZM35.66 3.66L6.28 3.66L3.61 38.33L38.33 38.33L35.66 3.66ZM15.63 11.66L14.29 11.66C14.29 11.66 13.05 22.31 20.97 22.33C28.87 22.35 27.65 11.66 27.65 11.66L26.31 11.66L26.31 9L31.65 9L31.65 11.66L30.32 11.66C30.32 11.66 32.28 24.97 20.97 25C9.72 25.02 11.62 11.66 11.62 11.66L10.29 11.66L10.29 9L15.63 9L15.63 11.66Z" />
</svg>